<?xml version="1.0" standalone="no"?>
<!DOCTYPE svg PUBLIC "-//W3C//DTD SVG 20010904//EN"
 "http://www.w3.org/TR/2001/REC-SVG-20010904/DTD/svg10.dtd">
<svg version="1.0" xmlns="http://www.w3.org/2000/svg"
 width="2260.000000pt" height="735.000000pt" viewBox="0 0 2260.000000 735.000000"
 preserveAspectRatio="xMidYMid meet">

<g transform="translate(0.000000,735.000000) scale(0.100000,-0.100000)"
fill="#0270A3" stroke="none">
<path d="M3485 7334 c-770 -51 -1499 -334 -2110 -820 -141 -112 -466 -437
-579 -579 -442 -555 -706 -1201 -772 -1894 -19 -198 -14 -572 10 -776 68 -561
239 -1053 526 -1510 311 -496 824 -973 1395 -1296 697 -394 1521 -533 2333
-394 664 115 1326 417 1817 830 211 177 456 449 635 703 l65 92 7101 0 c4917
0 7134 3 7205 11 280 28 524 116 751 268 387 261 621 623 714 1101 13 71 17
183 21 668 5 620 -1 780 -38 951 -118 544 -513 998 -1039 1194 -52 19 -147 48
-210 63 l-115 29 -7309 2 -7309 3 -52 63 c-65 79 -353 358 -465 451 -151 126
-340 250 -575 378 -427 233 -911 387 -1385 443 -133 15 -497 27 -615 19z m545
-504 c347 -25 593 -88 970 -249 213 -91 468 -241 662 -388 169 -129 398 -338
398 -364 0 -4 -39 -29 -87 -55 -260 -145 -506 -395 -643 -656 -69 -131 -106
-225 -140 -353 -54 -203 -55 -228 -55 -935 0 -593 2 -665 19 -760 62 -354 216
-652 466 -900 157 -156 349 -283 539 -357 53 -20 98 -38 100 -40 10 -7 -129
-165 -283 -322 -247 -251 -464 -418 -725 -560 -844 -458 -1908 -502 -2839
-117 -363 150 -790 457 -1079 775 -415 457 -697 1019 -792 1581 -55 326 -52
781 9 1125 61 345 228 777 420 1083 503 803 1388 1377 2293 1486 136 17 566
20 767 6z m4255 -2009 c44 -11 126 -43 182 -71 198 -98 339 -269 409 -497 l13
-43 -37 -9 c-77 -21 -383 -91 -395 -91 -7 0 -19 22 -26 50 -24 95 -106 197
-203 254 -88 51 -238 70 -360 45 -173 -36 -318 -176 -372 -359 -75 -252 -56
-653 40 -857 64 -135 211 -241 365 -265 254 -38 450 99 540 380 12 39 27 72
32 72 17 0 402 -122 410 -130 21 -19 -63 -228 -136 -338 -119 -178 -282 -289
-505 -344 -118 -29 -357 -31 -482 -5 -385 83 -663 381 -745 799 -25 127 -30
369 -11 514 38 289 133 492 307 660 144 137 289 211 492 250 109 20 379 12
482 -15z m2176 13 c402 -69 688 -333 795 -732 84 -315 44 -752 -92 -1002 -202
-371 -608 -558 -1084 -500 -251 31 -433 115 -595 275 -145 143 -224 292 -278
520 -18 77 -21 123 -21 310 -1 145 4 246 13 295 43 238 146 435 308 591 142
136 291 209 502 244 111 19 339 18 452 -1z m10070 -17 c169 -44 305 -117 423
-228 157 -147 253 -322 301 -548 37 -176 37 -466 0 -639 -87 -415 -355 -691
-759 -785 -121 -27 -389 -30 -517 -4 -435 87 -714 378 -796 831 -21 115 -23
396 -4 521 30 200 95 358 208 509 144 193 350 318 583 356 41 6 82 13 90 15 8
2 96 2 195 1 153 -3 195 -8 276 -29z m-8018 -723 l442 -720 5 720 5 721 205 0
205 0 3 -1093 2 -1092 -227 2 -228 3 -435 708 -435 708 -3 -710 -2 -711 -205
0 -205 0 0 1095 0 1095 216 -2 216 -3 441 -721z m2907 536 l0 -190 -320 0
-320 0 0 -905 0 -905 -225 0 -225 0 0 905 0 905 -325 0 -325 0 0 183 c0 101 3
187 7 190 3 4 395 7 870 7 l863 0 0 -190z m1579 -892 c238 -596 435 -1089 438
-1096 4 -10 -44 -12 -237 -10 l-242 3 -92 243 -91 242 -438 -2 -439 -3 -87
-240 -87 -240 -238 -3 c-189 -2 -237 0 -233 10 3 7 188 486 412 1063 224 578
413 1065 420 1083 l14 32 234 0 233 0 433 -1082z m2031 892 l0 -190 -320 0
-320 0 0 -905 0 -905 -225 0 -225 0 0 905 0 905 -325 0 -325 0 0 183 c0 101 3
187 7 190 3 4 395 7 870 7 l863 0 0 -190z"/>
<path d="M3040 5901 c-87 -28 -246 -106 -339 -168 -112 -74 -263 -226 -325
-326 -65 -105 -121 -236 -159 -376 -31 -115 -31 -118 -31 -351 0 -319 34 -553
125 -880 107 -382 237 -672 534 -1190 181 -317 254 -429 364 -561 354 -424
763 -637 1180 -616 141 7 245 32 411 97 244 97 311 157 318 289 5 91 -23 171
-148 421 -55 110 -116 239 -136 288 -104 252 -183 342 -302 342 -39 0 -160
-45 -297 -110 -290 -138 -348 -142 -445 -32 -85 96 -155 238 -432 882 -94 217
-192 445 -218 505 -83 192 -84 254 -7 321 40 34 316 175 438 223 147 58 196
162 154 326 -9 33 -59 148 -112 255 -52 107 -130 275 -173 372 -114 261 -158
309 -281 307 -35 0 -89 -8 -119 -18z"/>
<path d="M10072 4450 c-202 -54 -341 -204 -404 -435 -19 -70 -22 -106 -22
-285 -1 -184 2 -214 22 -290 63 -230 205 -386 407 -446 82 -25 248 -25 330 0
186 56 317 186 386 383 47 136 62 373 34 554 -39 262 -161 428 -373 507 -95
35 -275 41 -380 12z"/>
<path d="M20066 4455 c-196 -50 -355 -217 -410 -430 -54 -211 -42 -492 28
-679 67 -177 218 -313 396 -357 30 -8 102 -13 160 -13 169 1 293 55 405 176
103 111 157 254 175 465 11 127 1 293 -26 401 -50 208 -181 359 -365 423 -83
29 -274 36 -363 14z"/>
<path d="M16185 3904 c-77 -212 -141 -389 -143 -394 -2 -6 108 -10 291 -10
l295 0 -145 388 c-80 213 -148 390 -152 394 -3 3 -69 -167 -146 -378z"/>
</g>
</svg>
